<?xml version="1.0" encoding="utf-8"?>
<!-- Generator: Adobe Illustrator 15.1.0, SVG Export Plug-In . SVG Version: 6.00 Build 0)  -->
<!DOCTYPE svg PUBLIC "-//W3C//DTD SVG 1.1//EN" "http://www.w3.org/Graphics/SVG/1.1/DTD/svg11.dtd">
<svg version="1.1"
	 id="svg2" xmlns:sodipodi="http://sodipodi.sourceforge.net/DTD/sodipodi-0.dtd" xmlns:inkscape="http://www.inkscape.org/namespaces/inkscape" xmlns:dc="http://purl.org/dc/elements/1.1/" xmlns:cc="http://creativecommons.org/ns#" xmlns:rdf="http://www.w3.org/1999/02/22-rdf-syntax-ns#" xmlns:svg="http://www.w3.org/2000/svg"
	 xmlns="http://www.w3.org/2000/svg" xmlns:xlink="http://www.w3.org/1999/xlink" x="0px" y="0px" width="94.127px"
	 height="99.602px" viewBox="229.135 469.677 94.127 99.602" enable-background="new 229.135 469.677 94.127 99.602"
	 xml:space="preserve">
<g id="col1" onclick="parent.setColour(evt)" transform="matrix(2.1515037,0,0,2.0623295,-164.81169,0.84830001)">
	<rect id="rect35" x="183.103" y="242.384" fill="#FFFFFF" stroke="#000000" stroke-width="0.43" width="3.586" height="9.915"/>
</g>
<g id="col2" onclick="parent.setColour(evt)" transform="matrix(2.1515037,0,0,2.0623295,-164.81169,0.84830001)">
	<rect id="rect38" x="188.123" y="242.384" fill="#B5B2B5" stroke="#000000" stroke-width="0.43" width="3.586" height="9.915"/>
</g>
<g id="col3" onclick="parent.setColour(evt)" transform="matrix(2.1515037,0,0,2.0623295,-164.81169,0.84830001)">
	<rect id="rect41" x="193.144" y="242.384" fill="#6B696B" stroke="#000000" stroke-width="0.43" width="3.586" height="9.915"/>
</g>
<g id="col4" onclick="parent.setColour(evt)" transform="matrix(2.1515037,0,0,2.0623295,-164.81169,0.84830001)">
	<rect id="rect44" x="198.164" y="242.384" stroke="#000000" stroke-width="0.43" width="3.586" height="9.915"/>
</g>
<g id="col5" onclick="parent.setColour(evt)" transform="matrix(2.1515037,0,0,2.0623295,-164.81169,0.84830001)">
	<rect id="rect47" x="203.184" y="242.384" fill="#EFDBB5" stroke="#000000" stroke-width="0.43" width="3.586" height="9.915"/>
</g>
<g id="col6" onclick="parent.setColour(evt)" transform="matrix(2.1515037,0,0,2.0623295,-164.81169,0.84830001)">
	<rect id="rect50" x="208.205" y="242.384" fill="#EFDF00" stroke="#000000" stroke-width="0.43" width="3.586" height="9.915"/>
</g>
<g id="col7" onclick="parent.setColour(evt)" transform="matrix(2.1515037,0,0,2.0623295,-164.81169,0.84830001)">
	<rect id="rect53" x="213.225" y="242.384" fill="#FFD718" stroke="#000000" stroke-width="0.43" width="3.586" height="9.915"/>
</g>
<g id="col8" onclick="parent.setColour(evt)" transform="matrix(2.1515037,0,0,2.0623295,-164.81169,0.84830001)">
	<rect id="rect56" x="218.245" y="242.384" fill="#FFA218" stroke="#000000" stroke-width="0.43" width="3.586" height="9.915"/>
</g>
<g id="col9" onclick="parent.setColour(evt)" transform="matrix(2.1515037,0,0,2.0623295,-164.81169,0.84830001)">
	<rect id="rect59" x="223.266" y="242.384" fill="#E74D10" stroke="#000000" stroke-width="0.43" width="3.586" height="9.915"/>
</g>
<g id="col10" onclick="parent.setColour(evt)" transform="matrix(2.1515037,0,0,2.0623295,-164.81169,0.84830001)">
	<rect id="rect62" x="183.103" y="253.972" fill="#FF0000" stroke="#000000" stroke-width="0.43" width="3.586" height="9.915"/>
</g>
<g id="col11" onclick="parent.setColour(evt)" transform="matrix(2.1515037,0,0,2.0623295,-164.81169,0.84830001)">
	<rect id="rect65" x="188.123" y="253.972" fill="#FF1C4A" stroke="#000000" stroke-width="0.43" width="3.586" height="9.915"/>
</g>
<g id="col12" onclick="parent.setColour(evt)" transform="matrix(2.1515037,0,0,2.0623295,-164.81169,0.84830001)">
	<rect id="rect68" x="193.144" y="253.972" fill="#DE1842" stroke="#000000" stroke-width="0.43" width="3.586" height="9.915"/>
</g>
<g id="col13" onclick="parent.setColour(evt)" transform="matrix(2.1515037,0,0,2.0623295,-164.81169,0.84830001)">
	<rect id="rect71" x="198.164" y="253.972" fill="#AD2063" stroke="#000000" stroke-width="0.43" width="3.586" height="9.915"/>
</g>
<g id="col14" onclick="parent.setColour(evt)" transform="matrix(2.1515037,0,0,2.0623295,-164.81169,0.84830001)">
	<rect id="rect74" x="203.185" y="253.972" fill="#08A2EF" stroke="#000000" stroke-width="0.43" width="3.586" height="9.915"/>
</g>
<g id="col15" onclick="parent.setColour(evt)" transform="matrix(2.1515037,0,0,2.0623295,-164.81169,0.84830001)">
	<rect id="rect77" x="208.205" y="253.972" fill="#395DC6" stroke="#000000" stroke-width="0.43" width="3.586" height="9.915"/>
</g>
<g id="col16" onclick="parent.setColour(evt)" transform="matrix(2.1515037,0,0,2.0623295,-164.81169,0.84830001)">
	<rect id="rect80" x="213.225" y="253.972" fill="#29108C" stroke="#000000" stroke-width="0.43" width="3.586" height="9.915"/>
</g>
<g id="col17" onclick="parent.setColour(evt)" transform="matrix(2.1515037,0,0,2.0623295,-164.81169,0.84830001)">
	<rect id="rect83" x="218.246" y="253.972" fill="#08A6CE" stroke="#000000" stroke-width="0.43" width="3.586" height="9.915"/>
</g>
<g id="col18" onclick="parent.setColour(evt)" transform="matrix(2.1515037,0,0,2.0623295,-164.81169,0.84830001)">
	<rect id="rect86" x="223.266" y="253.972" fill="#00799C" stroke="#000000" stroke-width="0.43" width="3.586" height="9.915"/>
</g>
<g id="col19" onclick="parent.setColour(evt)" transform="matrix(2.1515037,0,0,2.0623295,-164.81169,0.84830001)">
	<rect id="rect89" x="183.103" y="265.71" fill="#73759C" stroke="#000000" stroke-width="0.43" width="3.586" height="9.915"/>
</g>
<g id="col20" onclick="parent.setColour(evt)" transform="matrix(2.1515037,0,0,2.0623295,-164.81169,0.84830001)">
	<rect id="rect92" x="188.124" y="265.71" fill="#EFCFEF" stroke="#000000" stroke-width="0.43" width="3.586" height="9.915"/>
</g>
<g id="col21" onclick="parent.setColour(evt)" transform="matrix(2.1515037,0,0,2.0623295,-164.81169,0.84830001)">
	<rect id="rect95" x="193.144" y="265.71" fill="#E7007B" stroke="#000000" stroke-width="0.43" width="3.586" height="9.915"/>
</g>
<g id="col22" onclick="parent.setColour(evt)" transform="matrix(2.1515037,0,0,2.0623295,-164.81169,0.84830001)">
	<rect id="rect98" x="198.164" y="265.71" fill="#C64D9C" stroke="#000000" stroke-width="0.43" width="3.586" height="9.915"/>
</g>
<g id="col23" onclick="parent.setColour(evt)" transform="matrix(2.1515037,0,0,2.0623295,-164.81169,0.84830001)">
	<rect id="rect101" x="203.185" y="265.71" fill="#6B0C5A" stroke="#000000" stroke-width="0.43" width="3.586" height="9.915"/>
</g>
<g id="col24" onclick="parent.setColour(evt)" transform="matrix(2.1515037,0,0,2.0623295,-164.81169,0.84830001)">
	<rect id="rect104" x="208.205" y="265.71" fill="#00964A" stroke="#000000" stroke-width="0.43" width="3.586" height="9.915"/>
</g>
<g id="col25" onclick="parent.setColour(evt)" transform="matrix(2.1515037,0,0,2.0623295,-164.81169,0.84830001)">
	<rect id="rect107" x="213.225" y="265.71" fill="#006D39" stroke="#000000" stroke-width="0.43" width="3.586" height="9.915"/>
</g>
<g id="col26" onclick="parent.setColour(evt)" transform="matrix(2.1515037,0,0,2.0623295,-164.81169,0.84830001)">
	<rect id="rect110" x="218.246" y="265.71" fill="#E5FF00" stroke="#000000" stroke-width="0.43" width="3.586" height="9.915"/>
</g>
<g id="col27" onclick="parent.setColour(evt)" transform="matrix(2.1515037,0,0,2.0623295,-164.81169,0.84830001)">
	<rect id="rect113" x="223.266" y="265.71" fill="#7BFB00" stroke="#000000" stroke-width="0.43" width="3.586" height="9.915"/>
</g>
<g id="current" transform="matrix(1.2758407,0,0,1.0595202,-206.49408,-79.476615)">
	<text id="text120" transform="matrix(0.3414 0 0 0.9438 344.4688 534.1689)" font-family="'ArialMT'" font-size="18.9075">Current Colour:</text>
	<rect id="currentColour" x="393.238" y="518.304" stroke="#000000" stroke-width="0.8601" width="21.515" height="23.796"/>
</g>
</svg>
