<?xml version="1.0" encoding="utf-8"?>
<!-- Generator: Adobe Illustrator 15.1.0, SVG Export Plug-In . SVG Version: 6.00 Build 0)  -->
<!DOCTYPE svg PUBLIC "-//W3C//DTD SVG 1.0//EN" "http://www.w3.org/TR/2001/REC-SVG-20010904/DTD/svg10.dtd">
<svg version="1.0" id="Layer_1" xmlns="http://www.w3.org/2000/svg" xmlns:xlink="http://www.w3.org/1999/xlink" x="0px" y="0px"
	 width="163.407px" height="138.666px" viewBox="0 0 163.407 138.666" enable-background="new 0 0 163.407 138.666"
	 xml:space="preserve">
<g>
	<g>
		<line fill="none" stroke="#000000" stroke-miterlimit="10" x1="11.716" y1="132.581" x2="161.604" y2="132.581"/>
		<g>
			<g>
				<line fill="none" stroke="#000000" stroke-miterlimit="10" x1="11.716" y1="132.581" x2="11.716" y2="129.567"/>
				<line fill="none" stroke="#000000" stroke-miterlimit="10" x1="161.604" y1="132.581" x2="161.604" y2="129.567"/>
			</g>
			<g>
			</g>
		</g>
	</g>
	<g>
		<g>
			<text transform="matrix(1 0 0 1 5.7705 135.2158)" font-family="'MyriadPro-Regular'" font-size="7.0259">0</text>
			<text transform="matrix(1 0 0 1 2.166 111.1045)" font-family="'MyriadPro-Regular'" font-size="7.0259">10</text>
			<text transform="matrix(1 0 0 1 2.166 86.9932)" font-family="'MyriadPro-Regular'" font-size="7.0259">20</text>
			<text transform="matrix(1 0 0 1 2.166 62.8828)" font-family="'MyriadPro-Regular'" font-size="7.0259">30</text>
			<text transform="matrix(1 0 0 1 2.166 38.7725)" font-family="'MyriadPro-Regular'" font-size="7.0259">40</text>
			<text transform="matrix(1 0 0 1 2.166 14.6611)" font-family="'MyriadPro-Regular'" font-size="7.0259">50</text>
		</g>
		<line fill="none" stroke="#000000" stroke-miterlimit="10" x1="11.716" y1="132.581" x2="11.716" y2="12.026"/>
		<g>
			<g>
				<line fill="none" stroke="#000000" stroke-miterlimit="10" x1="11.716" y1="132.581" x2="15.463" y2="132.581"/>
				<line fill="none" stroke="#000000" stroke-miterlimit="10" x1="11.716" y1="108.47" x2="15.463" y2="108.47"/>
				<line fill="none" stroke="#000000" stroke-miterlimit="10" x1="11.716" y1="84.358" x2="15.463" y2="84.358"/>
				<line fill="none" stroke="#000000" stroke-miterlimit="10" x1="11.716" y1="60.248" x2="15.463" y2="60.248"/>
				<line fill="none" stroke="#000000" stroke-miterlimit="10" x1="11.716" y1="36.138" x2="15.463" y2="36.138"/>
				<line fill="none" stroke="#000000" stroke-miterlimit="10" x1="11.716" y1="12.026" x2="15.463" y2="12.026"/>
			</g>
			<g>
			</g>
		</g>
	</g>
	<g>
		<g>
			<g>
				
					<rect x="118.137" y="26.493" fill="#404040" stroke="#000000" stroke-width="0.5" stroke-miterlimit="10" width="26.98" height="106.088"/>
			</g>
		</g>
		<g>
			<g>
				
					<rect x="88.159" y="55.426" fill="#808080" stroke="#000000" stroke-width="0.5" stroke-miterlimit="10" width="26.98" height="77.155"/>
			</g>
		</g>
		<g>
			<g>
				
					<rect x="58.181" y="91.593" fill="#DFDFDF" stroke="#000000" stroke-width="0.5" stroke-miterlimit="10" width="26.979" height="40.988"/>
			</g>
		</g>
		<g>
			<g>
				<rect x="28.204" y="120.526" stroke="#000000" stroke-width="0.5" stroke-miterlimit="10" width="26.979" height="12.055"/>
			</g>
		</g>
	</g>
	<g>
		<g>
		</g>
		<g>
		</g>
		<g>
		</g>
		<g>
		</g>
	</g>
</g>
</svg>
